# xmcd CD database file generated by OrangeCD 6.4
#
# Track frame offsets:
#	150
#	81737
#	96401
#	115797
#	129718
#	139306
#	143801
#	159490
#	174646
#	184961
#	202426
#	216550
#	236091
#	254515
#	268882
#	297022
#
# Disc length: 4619 seconds
#
# Revision: 0
# Processed by: cddbd v1.5.2PL0 Copyright (c) Steve Scherf et al.
# Submitted via: OrangeCD 6.4
#
DISCID=13120910
DTITLE=Jimi Hendrix - Moonbeams and Fairytales
DYEAR=2008
DGENRE=Blues Rock
TTITLE0=Interview with Jimi, Mitch and Noel (Hans Schmidt)
TTITLE1=Stone Free
TTITLE2=Hey Joe
TTITLE3=Purple Haze
TTITLE4=Wild Thing
TTITLE5=Interview by Carsten Grolin (for Danish Radio "Beat Forum")
TTITLE6=The Wind Cries Mary
TTITLE7=Purple Haze
TTITLE8=Intro
TTITLE9=Tune-Up/Foxy Lady
TTITLE10=Rock Me Baby
TTITLE11=Hey Joe
TTITLE12=Can You See Me
TTITLE13=Purple Haze
TTITLE14=Wild Thing
TTITLE15=Interview with Jimi by Klas Burling
EXTD=
EXTT0=
EXTT1=
EXTT2=
EXTT3=
EXTT4=
EXTT5=
EXTT6=
EXTT7=
EXTT8=
EXTT9=
EXTT10=
EXTT11=
EXTT12=
EXTT13=
EXTT14=
EXTT15=
PLAYORDER=
